{"title":"Black Joe Lewis &amp; The Honeybears - Tell 'Em What Your Name Is","uid":5052344,"size":224957079,"categoryP":"audio","categoryS":"flac","magnet":"?xt=urn:btih:56e1466c940a27450291599210f7b07c4361b470&amp;dn=Black+Joe+Lewis+%26+The+Honeybears+-+Tell+%5C%27Em+What+Your+Name+Is&amp;tr=udp%3A%2F%2Ftracker.openbittorrent.com%3A80&amp;tr=udp%3A%2F%2Fopen.demonii.com%3A1337&amp;tr=udp%3A%2F%2Ftracker.coppersurfer.tk%3A6969&amp;tr=udp%3A%2F%2Fexodus.desync.com%3A6969","seeders":1,"leechers":0,"uploader":"sowingmyseed","files":12,"time":1250231928,"description":"Exact Audio Copy V0.99 prebeta 4 from 23. January 2008\n\nEAC extraction logfile from 11. August 2009, 9:59\n\nBlack Joe Lewis &amp; The Honeybears / Tell 'Em What Your Name Is\n\nUsed drive  : ATAPI   DVD D  DH16D3P   Adapter: 0  ID: 1\n\nRead mode               : Secure\nUtilize accurate stream : Yes\nDefeat audio cache      : No\nMake use of C2 pointers : No\n\nRead offset correction                      : 6\nOverread into Lead-In and Lead-Out          : No\nFill up missing offset samples with silence : Yes\nDelete leading and trailing silent blocks   : No\nNull samples used in CRC calculations       : No\nUsed interface                              : Installed external ASPI interface\nGap handling                                : Not detected, thus appended to previous track\n\nUsed output format              : User Defined Encoder\nSelected bitrate                : 768 kBit/s\nQuality                         : High\nAdd ID3 tag                     : No\nCommand line compressor         : C:Program FilesExact Audio CopyFLACFLAC.EXE\nAdditional command line options : -6 -V -T &quot;ARTIST=%a&quot; -T &quot;TITLE=%t&quot; -T &quot;ALBUM=%g&quot; -T &quot;DATE=%y&quot; -T &quot;TRACKNUMBER=%n&quot; -T &quot;GENRE=%m&quot; -T &quot;COMMENT=%e&quot; %s -o %d\n\n\nTOC of the extracted CD\n\n     Track |   Start  |  Length  | Start sector | End sector \n    ---------------------------------------------------------\n        1  |  0:00.00 |  2:10.09 |         0    |     9758   \n        2  |  2:10.09 |  3:18.00 |      9759    |    24608   \n        3  |  5:28.09 |  4:08.02 |     24609    |    43210   \n        4  |  9:36.11 |  3:05.60 |     43211    |    57145   \n        5  | 12:41.71 |  3:16.64 |     57146    |    71909   \n        6  | 15:58.60 |  3:34.53 |     71910    |    88012   \n        7  | 19:33.38 |  2:49.20 |     88013    |   100707   \n        8  | 22:22.58 |  3:00.59 |    100708    |   114266   \n        9  | 25:23.42 |  2:45.51 |    114267    |   126692   \n       10  | 28:09.18 |  2:25.55 |    126693    |   137622   \n\n\nTrack  1\n\n     Filename E:MusicBlack Joe Lewis &amp; The HoneybearsTell 'Em What Your Name IsBlack Joe Lewis &amp; The Honeybears - Tell 'Em What Your Name Is - 01. Gunpowder.wav\n\n     Peak level 98.9 %\n     Track quality 100.0 %\n     Test CRC 9347E076\n     Copy CRC 9347E076\n     Accurately ripped (confidence 6)  [DECDAEE9]\n     Copy OK\n\nTrack  2\n\n     Filename E:MusicBlack Joe Lewis &amp; The HoneybearsTell 'Em What Your Name IsBlack Joe Lewis &amp; The Honeybears - Tell 'Em What Your Name Is - 02. Sugarfoot.wav\n\n     Peak level 98.9 %\n     Track quality 100.0 %\n     Test CRC D8BAAAAD\n     Copy CRC D8BAAAAD\n     Accurately ripped (confidence 7)  [6142308A]\n     Copy OK\n\nTrack  3\n\n     Filename E:MusicBlack Joe Lewis &amp; The HoneybearsTell 'Em What Your Name IsBlack Joe Lewis &amp; The Honeybears - Tell 'Em What Your Name Is - 03. I'm Broke.wav\n\n     Peak level 99.9 %\n     Track quality 99.9 %\n     Test CRC 9675FD1C\n     Copy CRC 9675FD1C\n     Accurately ripped (confidence 7)  [586D90C5]\n     Copy OK\n\nTrack  4\n\n     Filename E:MusicBlack Joe Lewis &amp; The HoneybearsTell 'Em What Your Name IsBlack Joe Lewis &amp; The Honeybears - Tell 'Em What Your Name Is - 04. Big Booty Woman.wav\n\n     Peak level 98.9 %\n     Track quality 100.0 %\n     Test CRC 386E8034\n     Copy CRC 386E8034\n     Accurately ripped (confidence 7)  [3DFCA92A]\n     Copy OK\n\nTrack  5\n\n     Filename E:MusicBlack Joe Lewis &amp; The HoneybearsTell 'Em What Your Name IsBlack Joe Lewis &amp; The Honeybears - Tell 'Em What Your Name Is - 05. Boogie.wav\n\n     Peak level 98.9 %\n     Track quality 100.0 %\n     Test CRC 20664049\n     Copy CRC 20664049\n     Accurately ripped (confidence 7)  [79461394]\n     Copy OK\n\nTrack  6\n\n     Filename E:MusicBlack Joe Lewis &amp; The HoneybearsTell 'Em What Your Name IsBlack Joe Lewis &amp; The Honeybears - Tell 'Em What Your Name Is - 06. Master Sold My Baby.wav\n\n     Peak level 98.9 %\n     Track quality 100.0 %\n     Test CRC 44181AA3\n     Copy CRC 44181AA3\n     Accurately ripped (confidence 7)  [BA2EBF84]\n     Copy OK\n\nTrack  7\n\n     Filename E:MusicBlack Joe Lewis &amp; The HoneybearsTell 'Em What Your Name IsBlack Joe Lewis &amp; The Honeybears - Tell 'Em What Your Name Is - 07. Get Yo Shit.wav\n\n     Peak level 99.8 %\n     Track quality 100.0 %\n     Test CRC 535E0171\n     Copy CRC 535E0171\n     Accurately ripped (confidence 7)  [4A84F7C1]\n     Copy OK\n\nTrack  8\n\n     Filename E:MusicBlack Joe Lewis &amp; The HoneybearsTell 'Em What Your Name IsBlack Joe Lewis &amp; The Honeybears - Tell 'Em What Your Name Is - 08. Humpin'.wav\n\n     Peak level 98.9 %\n     Track quality 100.0 %\n     Test CRC 724E4C17\n     Copy CRC 724E4C17\n     Accurately ripped (confidence 7)  [AD209FB2]\n     Copy OK\n\nTrack  9\n\n     Filename E:MusicBlack Joe Lewis &amp; The HoneybearsTell 'Em What Your Name IsBlack Joe Lewis &amp; The Honeybears - Tell 'Em What Your Name Is - 09. Bobby Booshay.wav\n\n     Peak level 98.9 %\n     Track quality 99.9 %\n     Test CRC C357E422\n     Copy CRC C357E422\n     Accurately ripped (confidence 7)  [C50FF182]\n     Copy OK\n\nTrack 10\n\n     Filename E:MusicBlack Joe Lewis &amp; The HoneybearsTell 'Em What Your Name IsBlack Joe Lewis &amp; The Honeybears - Tell 'Em What Your Name Is - 10. Please Pt. Two.wav\n\n     Peak level 98.9 %\n     Track quality 100.0 %\n     Test CRC E552CFF5\n     Copy CRC E552CFF5\n     Accurately ripped (confidence 7)  [C04E035B]\n     Copy OK\n\n\nAll tracks accurately ripped\n\nNo errors occurred\n\nEnd of status report\n","torrent":{"xt":"urn:btih:56e1466c940a27450291599210f7b07c4361b470","amp;dn":"Black+Joe+Lewis+%26+The+Honeybears+-+Tell+%5C%27Em+What+Your+Name+Is","amp;tr":["udp%3A%2F%2Ftracker.openbittorrent.com%3A80","udp%3A%2F%2Fopen.demonii.com%3A1337","udp%3A%2F%2Ftracker.coppersurfer.tk%3A6969","udp%3A%2F%2Fexodus.desync.com%3A6969"],"infoHash":"56e1466c940a27450291599210f7b07c4361b470","infoHashBuffer":{"type":"Buffer","data":[86,225,70,108,148,10,39,69,2,145,89,146,16,247,176,124,67,97,180,112]},"announce":[],"urlList":[]}}